<?xml version="1.0" encoding="utf-8"?>
<!-- Generator: Adobe Illustrator 16.0.0, SVG Export Plug-In . SVG Version: 6.00 Build 0)  -->
<!DOCTYPE svg PUBLIC "-//W3C//DTD SVG 1.1//EN" "http://www.w3.org/Graphics/SVG/1.1/DTD/svg11.dtd">
<svg version="1.1" id="Layer_1" xmlns="http://www.w3.org/2000/svg" xmlns:xlink="http://www.w3.org/1999/xlink" x="0px" y="0px"
	 width="183.155px" height="53.67px" viewBox="0 0 183.155 53.67" enable-background="new 0 0 183.155 53.67" xml:space="preserve">
<g>
	<polygon fill="#CC0000" points="45.798,52.889 28.434,44.094 11.346,53.412 14.344,34.181 0.202,20.808 19.419,17.717 
		27.767,0.134 36.645,17.456 55.947,19.961 42.217,33.757 	"/>
	<linearGradient id="SVGID_1_" gradientUnits="userSpaceOnUse" x1="28.0747" y1="53.4121" x2="28.0747" y2="0.1343">
		<stop  offset="0" style="stop-color:#0E0E0E"/>
		<stop  offset="0.5" style="stop-color:#000000"/>
		<stop  offset="0.5213" style="stop-color:#010101"/>
		<stop  offset="0.7262" style="stop-color:#0B0B0B"/>
		<stop  offset="1" style="stop-color:#0E0E0E"/>
	</linearGradient>
	<polygon opacity="0.51" fill="url(#SVGID_1_)" points="45.798,52.889 28.434,44.094 11.346,53.412 14.344,34.181 0.202,20.808 
		19.419,17.717 27.767,0.134 36.645,17.456 55.947,19.961 42.217,33.757 	"/>
	<linearGradient id="SVGID_2_" gradientUnits="userSpaceOnUse" x1="28.0747" y1="0.1343" x2="28.0747" y2="53.4121">
		<stop  offset="0" style="stop-color:#FFFFFF;stop-opacity:0.77"/>
		<stop  offset="0.2033" style="stop-color:#FFFFFF;stop-opacity:0.65"/>
		<stop  offset="0.3448" style="stop-color:#FFFFFF;stop-opacity:0.65"/>
		<stop  offset="0.3462" style="stop-color:#FFFFFF;stop-opacity:0.65"/>
		<stop  offset="0.511" style="stop-color:#FFFFFF;stop-opacity:0"/>
		<stop  offset="0.5247" style="stop-color:#E1E1E1;stop-opacity:0.0045"/>
		<stop  offset="0.5464" style="stop-color:#B8B8B8;stop-opacity:0.0116"/>
		<stop  offset="0.5708" style="stop-color:#929292;stop-opacity:0.0196"/>
		<stop  offset="0.5974" style="stop-color:#727272;stop-opacity:0.0283"/>
		<stop  offset="0.6268" style="stop-color:#565656;stop-opacity:0.0379"/>
		<stop  offset="0.6599" style="stop-color:#404040;stop-opacity:0.0487"/>
		<stop  offset="0.6986" style="stop-color:#2F2F2F;stop-opacity:0.0614"/>
		<stop  offset="0.7465" style="stop-color:#242424;stop-opacity:0.0771"/>
		<stop  offset="0.8136" style="stop-color:#1D1D1D;stop-opacity:0.099"/>
		<stop  offset="1" style="stop-color:#1B1B1B;stop-opacity:0.16"/>
	</linearGradient>
	<polygon opacity="0.7" fill="url(#SVGID_2_)" points="45.798,52.889 28.434,44.094 11.346,53.412 14.344,34.181 0.202,20.808 
		19.419,17.717 27.767,0.134 36.645,17.456 55.947,19.961 42.217,33.757 	"/>
	<g opacity="0.49">
		<path fill="#FFFFFF" d="M14.721,33.689c-4.348-4.112-8.696-8.224-13.044-12.335c-0.974-0.921-0.846,0.073-0.154-0.039
			c1.242-0.2,2.484-0.399,3.726-0.599c3.889-0.625,7.779-1.251,11.668-1.877c2.014-0.324,2.542-0.021,3.383-1.791
			c1.62-3.413,3.241-6.826,4.861-10.238c0.317-0.668,2.882-5.002,2.649-5.458c1.355,2.644,2.709,5.287,4.064,7.931
			c1.428,2.786,2.855,5.571,4.283,8.357c0.651,1.27,4.145,1.008,5.417,1.173c3.622,0.47,7.244,0.94,10.865,1.411
			c0.896,0.116,1.792,0.232,2.688,0.349c-0.54-0.07,0.458-1.112-0.334-0.316c-0.52,0.522-1.04,1.045-1.56,1.567
			c-2.576,2.588-5.152,5.177-7.729,7.766c-0.623,0.625-3.663,2.86-3.672,3.793c-0.037,3.71,1.335,7.736,2.014,11.364
			c0.487,2.601,0.974,5.201,1.46,7.802c-0.329-1.757-4.711-3.053-6.271-3.843c-3.092-1.566-6.184-3.132-9.275-4.698
			c-1.905-0.965-2.505-0.036-4.43,1.014c-3.239,1.766-6.478,3.532-9.717,5.298c-1.104,0.602-2.208,1.204-3.312,1.806
			c-0.7,0.381-0.567,1.445-0.346,0.027c0.922-5.913,1.844-11.826,2.766-17.739C14.758,34.178,14.685,33.924,14.721,33.689
			c-0.972,6.236-1.945,12.472-2.917,18.708c-0.016,0.099,0.061,0.693,0,0.726c5.542-3.021,11.083-6.043,16.624-9.064
			c0.833-0.455,7.122,3.607,8.009,4.057c2.96,1.5,5.921,3,8.882,4.499c-0.059-0.03,0.018-0.628,0-0.726
			c-1.157-6.182-2.314-12.364-3.472-18.546c0.211,1.126,1.291-0.648,1.947-1.308c1.458-1.465,2.916-2.93,4.374-4.395
			c2.341-2.353,4.683-4.705,7.024-7.058c0.042-0.042-0.007-0.727,0-0.726c-6.259-0.812-12.518-1.625-18.777-2.438
			c-0.942-0.123-3.641-7.104-4.095-7.99c-1.514-2.953-3.028-5.907-4.542-8.86c0.48,0.936-3.389,7.137-3.851,8.11
			c-1.423,2.998-2.847,5.997-4.271,8.995c-0.407,0.858-7.882,1.268-8.864,1.426c-3.277,0.527-6.554,1.054-9.831,1.581
			c0.004,0-0.042,0.687,0,0.726c4.586,4.336,9.171,8.673,13.757,13.009C14.604,34.303,14.845,33.806,14.721,33.689z"/>
	</g>
	<polygon fill="none" stroke="#717171" stroke-width="0.5878" stroke-miterlimit="1" points="45.798,52.889 28.434,44.094 
		11.346,53.412 14.344,34.181 0.202,20.808 19.419,17.717 27.767,0.134 36.645,17.456 55.947,19.961 42.217,33.757 	"/>
	<g opacity="0.58">
		<path d="M45.798,52.829C40.438,50.114,35.08,47.4,29.72,44.685c-1.688-0.854-1.913-0.31-3.643,0.634
			c-3.434,1.873-6.867,3.745-10.301,5.617c-0.78,0.425-4.471,2.797-4.346,1.998c0.521-3.346,1.043-6.691,1.565-10.038
			c0.43-2.758,1.452-5.972,1.35-8.774c-0.033-0.898-3.679-3.481-4.31-4.078c-2.787-2.636-5.575-5.271-8.362-7.907
			c-1.901-1.798-1.219-1.31,1.18-1.696c3.861-0.621,7.723-1.242,11.584-1.863c0.841-0.135,4.69-0.187,5.088-1.025
			c1.356-2.855,2.712-5.711,4.067-8.567c1.313-2.766,2.627-5.532,3.94-8.299c0.49-1.031,2.155,3.256,2.536,3.999
			c1.973,3.849,3.946,7.698,5.918,11.547c1.094,2.134,3.34,1.631,5.662,1.933c4.289,0.557,8.578,1.114,12.868,1.671
			c0.717,0.093,1.655-0.162,1.045,0.451c-1.267,1.273-2.533,2.545-3.8,3.818c-2.959,2.974-5.919,5.948-8.879,8.921
			c-0.194,0.195-0.679,0.467-0.667,0.789c0.228,6.267,2.425,12.959,3.581,19.134C45.791,52.911,45.805,52.868,45.798,52.829
			c-1.19-6.356-2.379-12.713-3.569-19.069c-0.173-0.924,6.098-6.081,6.854-6.839c2.288-2.299,4.576-4.599,6.865-6.898
			c0.007-0.007-0.001-0.121,0-0.121c-6.434-0.835-12.868-1.67-19.302-2.506c-1.021-0.132-3.944-7.695-4.439-8.661
			c-1.479-2.887-2.959-5.774-4.439-8.661c0.521,1.016-3.67,7.73-4.174,8.792c-1.391,2.93-2.782,5.861-4.174,8.791
			c-0.442,0.93-8.537,1.373-9.608,1.545c-3.203,0.515-6.406,1.03-9.608,1.545c0,0-0.007,0.115,0,0.121
			c4.699,4.443,9.397,8.886,14.096,13.33c0.759,0.717-1.274,8.388-1.454,9.538c-0.5,3.205-0.999,6.411-1.499,9.616
			c-0.002,0.017,0.01,0.116,0,0.121c5.696-3.106,11.392-6.212,17.088-9.318c0.904-0.493,7.714,3.907,8.682,4.397
			c2.894,1.466,5.788,2.932,8.682,4.397C45.782,52.942,45.815,52.837,45.798,52.829z"/>
	</g>
</g>
<g>
	<polygon fill="#0000CC" points="172.798,52.889 155.434,44.094 138.346,53.412 141.344,34.181 127.202,20.808 146.419,17.717 
		154.767,0.134 163.646,17.456 182.946,19.961 169.217,33.757 	"/>
	<linearGradient id="SVGID_3_" gradientUnits="userSpaceOnUse" x1="155.0742" y1="53.4116" x2="155.0742" y2="0.1343">
		<stop  offset="0" style="stop-color:#0E0E0E"/>
		<stop  offset="0.5" style="stop-color:#000000"/>
		<stop  offset="0.5213" style="stop-color:#010101"/>
		<stop  offset="0.7262" style="stop-color:#0B0B0B"/>
		<stop  offset="1" style="stop-color:#0E0E0E"/>
	</linearGradient>
	<polygon opacity="0.51" fill="url(#SVGID_3_)" points="172.798,52.889 155.434,44.094 138.346,53.412 141.344,34.181 
		127.202,20.808 146.419,17.717 154.767,0.134 163.646,17.456 182.946,19.961 169.217,33.757 	"/>
	<linearGradient id="SVGID_4_" gradientUnits="userSpaceOnUse" x1="155.0742" y1="0.1343" x2="155.0742" y2="53.4116">
		<stop  offset="0" style="stop-color:#FFFFFF;stop-opacity:0.77"/>
		<stop  offset="0.2033" style="stop-color:#FFFFFF;stop-opacity:0.65"/>
		<stop  offset="0.3448" style="stop-color:#FFFFFF;stop-opacity:0.65"/>
		<stop  offset="0.3462" style="stop-color:#FFFFFF;stop-opacity:0.65"/>
		<stop  offset="0.511" style="stop-color:#FFFFFF;stop-opacity:0"/>
		<stop  offset="0.5247" style="stop-color:#E1E1E1;stop-opacity:0.0045"/>
		<stop  offset="0.5464" style="stop-color:#B8B8B8;stop-opacity:0.0116"/>
		<stop  offset="0.5708" style="stop-color:#929292;stop-opacity:0.0196"/>
		<stop  offset="0.5974" style="stop-color:#727272;stop-opacity:0.0283"/>
		<stop  offset="0.6268" style="stop-color:#565656;stop-opacity:0.0379"/>
		<stop  offset="0.6599" style="stop-color:#404040;stop-opacity:0.0487"/>
		<stop  offset="0.6986" style="stop-color:#2F2F2F;stop-opacity:0.0614"/>
		<stop  offset="0.7465" style="stop-color:#242424;stop-opacity:0.0771"/>
		<stop  offset="0.8136" style="stop-color:#1D1D1D;stop-opacity:0.099"/>
		<stop  offset="1" style="stop-color:#1B1B1B;stop-opacity:0.16"/>
	</linearGradient>
	<polygon opacity="0.7" fill="url(#SVGID_4_)" points="172.798,52.889 155.434,44.094 138.346,53.412 141.344,34.181 
		127.202,20.808 146.419,17.717 154.767,0.134 163.646,17.456 182.946,19.961 169.217,33.757 	"/>
	<g opacity="0.49">
		<path fill="#FFFFFF" d="M141.721,33.689c-4.348-4.112-8.696-8.224-13.044-12.335c-0.974-0.921-0.846,0.073-0.154-0.039
			c1.242-0.2,2.484-0.399,3.726-0.599c3.889-0.625,7.779-1.251,11.668-1.877c2.014-0.324,2.542-0.021,3.383-1.791
			c1.62-3.413,3.241-6.826,4.861-10.238c0.317-0.668,2.882-5.002,2.649-5.458c1.355,2.644,2.71,5.287,4.065,7.931
			c1.428,2.786,2.855,5.571,4.283,8.357c0.651,1.27,4.145,1.008,5.417,1.173c3.622,0.47,7.243,0.94,10.864,1.411
			c0.896,0.116,1.792,0.232,2.688,0.349c-0.54-0.07,0.458-1.112-0.334-0.316c-0.52,0.522-1.04,1.045-1.56,1.567
			c-2.576,2.588-5.152,5.177-7.728,7.766c-0.623,0.625-3.663,2.86-3.672,3.793c-0.037,3.71,1.335,7.736,2.014,11.364
			c0.487,2.601,0.974,5.201,1.46,7.802c-0.329-1.757-4.711-3.053-6.271-3.843c-3.092-1.566-6.184-3.132-9.275-4.698
			c-1.905-0.965-2.505-0.036-4.43,1.013c-3.239,1.766-6.478,3.532-9.717,5.298c-1.104,0.602-2.208,1.204-3.312,1.806
			c-0.7,0.381-0.567,1.445-0.346,0.027c0.922-5.913,1.844-11.826,2.766-17.738C141.758,34.178,141.685,33.925,141.721,33.689
			c-0.972,6.236-1.945,12.472-2.917,18.708c-0.016,0.099,0.061,0.693,0,0.726c5.542-3.021,11.083-6.042,16.624-9.064
			c0.834-0.455,7.122,3.607,8.009,4.057c2.96,1.5,5.921,3,8.882,4.499c-0.059-0.03,0.018-0.628,0-0.726
			c-1.157-6.182-2.314-12.364-3.472-18.546c0.211,1.126,1.291-0.648,1.947-1.308c1.458-1.465,2.916-2.93,4.374-4.395
			c2.341-2.353,4.682-4.705,7.023-7.058c0.042-0.042-0.007-0.727,0-0.726c-6.259-0.812-12.518-1.625-18.776-2.438
			c-0.942-0.123-3.642-7.104-4.095-7.99c-1.514-2.953-3.028-5.907-4.542-8.86c0.48,0.936-3.389,7.137-3.851,8.11
			c-1.423,2.998-2.847,5.997-4.271,8.995c-0.407,0.858-7.882,1.268-8.864,1.426c-3.277,0.527-6.554,1.054-9.831,1.581
			c0.004,0-0.042,0.687,0,0.726c4.586,4.336,9.171,8.673,13.757,13.01C141.604,34.304,141.845,33.806,141.721,33.689z"/>
	</g>
	<polygon fill="none" stroke="#717171" stroke-width="0.5878" stroke-miterlimit="1" points="172.798,52.889 155.434,44.094 
		138.346,53.412 141.344,34.181 127.202,20.808 146.419,17.717 154.767,0.134 163.646,17.456 182.946,19.961 169.217,33.757 	"/>
	<g opacity="0.58">
		<path d="M172.798,52.829c-5.359-2.714-10.718-5.429-16.078-8.144c-1.688-0.854-1.913-0.31-3.643,0.634
			c-3.434,1.872-6.867,3.745-10.301,5.617c-0.78,0.425-4.471,2.797-4.346,1.998c0.521-3.346,1.043-6.691,1.565-10.037
			c0.43-2.759,1.452-5.972,1.35-8.774c-0.033-0.898-3.678-3.481-4.31-4.078c-2.787-2.636-5.575-5.271-8.362-7.907
			c-1.901-1.798-1.219-1.311,1.18-1.696c3.861-0.621,7.723-1.242,11.584-1.863c0.841-0.135,4.69-0.187,5.088-1.025
			c1.356-2.855,2.712-5.711,4.067-8.567c1.313-2.766,2.627-5.532,3.94-8.299c0.49-1.031,2.155,3.256,2.536,3.999
			c1.973,3.849,3.946,7.698,5.919,11.547c1.094,2.134,3.34,1.631,5.662,1.933c4.289,0.557,8.578,1.114,12.867,1.671
			c0.717,0.093,1.655-0.162,1.045,0.451c-1.267,1.273-2.533,2.545-3.8,3.818c-2.959,2.974-5.919,5.948-8.878,8.921
			c-0.194,0.195-0.679,0.467-0.667,0.789c0.228,6.267,2.425,12.959,3.581,19.134C172.791,52.911,172.805,52.868,172.798,52.829
			c-1.19-6.356-2.379-12.713-3.569-19.069c-0.173-0.924,6.098-6.081,6.853-6.839c2.288-2.299,4.577-4.599,6.865-6.898
			c0.007-0.007-0.001-0.121,0-0.121c-6.434-0.835-12.867-1.67-19.301-2.506c-1.021-0.132-3.944-7.695-4.439-8.661
			c-1.479-2.887-2.959-5.774-4.439-8.661c0.521,1.015-3.67,7.73-4.174,8.792c-1.391,2.93-2.782,5.861-4.174,8.791
			c-0.442,0.93-8.537,1.373-9.608,1.545c-3.203,0.515-6.406,1.03-9.608,1.545c0,0-0.007,0.115,0,0.121
			c4.699,4.443,9.397,8.887,14.096,13.33c0.759,0.717-1.274,8.387-1.454,9.538c-0.5,3.205-0.999,6.41-1.499,9.615
			c-0.002,0.017,0.01,0.116,0,0.121c5.696-3.106,11.392-6.211,17.088-9.317c0.904-0.493,7.714,3.907,8.682,4.397
			c2.894,1.466,5.788,2.932,8.682,4.397C172.782,52.942,172.815,52.837,172.798,52.829z"/>
	</g>
</g>
<g>
	<polygon fill="#CCCC00" points="109.798,52.889 92.434,44.094 75.346,53.412 78.344,34.181 64.202,20.808 83.419,17.717 
		91.767,0.134 100.646,17.456 119.946,19.961 106.217,33.757 	"/>
	<linearGradient id="SVGID_5_" gradientUnits="userSpaceOnUse" x1="92.0742" y1="53.4116" x2="92.0742" y2="0.1343">
		<stop  offset="0" style="stop-color:#0E0E0E"/>
		<stop  offset="0.5" style="stop-color:#000000"/>
		<stop  offset="0.5213" style="stop-color:#010101"/>
		<stop  offset="0.7262" style="stop-color:#0B0B0B"/>
		<stop  offset="1" style="stop-color:#0E0E0E"/>
	</linearGradient>
	<polygon opacity="0.51" fill="url(#SVGID_5_)" points="109.798,52.889 92.434,44.094 75.346,53.412 78.344,34.181 64.202,20.808 
		83.419,17.717 91.767,0.134 100.646,17.456 119.946,19.961 106.217,33.757 	"/>
	<linearGradient id="SVGID_6_" gradientUnits="userSpaceOnUse" x1="92.0742" y1="0.1343" x2="92.0742" y2="53.4116">
		<stop  offset="0" style="stop-color:#FFFFFF;stop-opacity:0.77"/>
		<stop  offset="0.2033" style="stop-color:#FFFFFF;stop-opacity:0.65"/>
		<stop  offset="0.3448" style="stop-color:#FFFFFF;stop-opacity:0.65"/>
		<stop  offset="0.3462" style="stop-color:#FFFFFF;stop-opacity:0.65"/>
		<stop  offset="0.511" style="stop-color:#FFFFFF;stop-opacity:0"/>
		<stop  offset="0.5247" style="stop-color:#E1E1E1;stop-opacity:0.0045"/>
		<stop  offset="0.5464" style="stop-color:#B8B8B8;stop-opacity:0.0116"/>
		<stop  offset="0.5708" style="stop-color:#929292;stop-opacity:0.0196"/>
		<stop  offset="0.5974" style="stop-color:#727272;stop-opacity:0.0283"/>
		<stop  offset="0.6268" style="stop-color:#565656;stop-opacity:0.0379"/>
		<stop  offset="0.6599" style="stop-color:#404040;stop-opacity:0.0487"/>
		<stop  offset="0.6986" style="stop-color:#2F2F2F;stop-opacity:0.0614"/>
		<stop  offset="0.7465" style="stop-color:#242424;stop-opacity:0.0771"/>
		<stop  offset="0.8136" style="stop-color:#1D1D1D;stop-opacity:0.099"/>
		<stop  offset="1" style="stop-color:#1B1B1B;stop-opacity:0.16"/>
	</linearGradient>
	<polygon opacity="0.7" fill="url(#SVGID_6_)" points="109.798,52.889 92.434,44.094 75.346,53.412 78.344,34.181 64.202,20.808 
		83.419,17.717 91.767,0.134 100.646,17.456 119.946,19.961 106.217,33.757 	"/>
	<g opacity="0.49">
		<path fill="#FFFFFF" d="M78.721,33.689c-4.348-4.112-8.696-8.224-13.044-12.335c-0.974-0.921-0.846,0.073-0.154-0.039
			c1.242-0.2,2.484-0.399,3.726-0.599c3.889-0.625,7.779-1.251,11.668-1.877c2.014-0.324,2.542-0.021,3.383-1.791
			c1.62-3.413,3.241-6.826,4.861-10.238c0.317-0.668,2.882-5.002,2.649-5.458c1.355,2.644,2.71,5.287,4.065,7.931
			c1.428,2.786,2.855,5.571,4.283,8.357c0.651,1.27,4.145,1.008,5.417,1.173c3.622,0.47,7.243,0.94,10.864,1.411
			c0.896,0.116,1.792,0.232,2.688,0.349c-0.54-0.07,0.458-1.112-0.334-0.316c-0.52,0.522-1.04,1.045-1.56,1.567
			c-2.576,2.588-5.152,5.177-7.728,7.766c-0.623,0.625-3.663,2.86-3.672,3.793c-0.037,3.71,1.335,7.736,2.014,11.364
			c0.487,2.601,0.974,5.201,1.46,7.802c-0.329-1.757-4.711-3.053-6.271-3.843c-3.092-1.566-6.184-3.132-9.275-4.698
			c-1.905-0.965-2.505-0.036-4.43,1.013c-3.239,1.766-6.478,3.532-9.717,5.298c-1.104,0.602-2.208,1.204-3.312,1.806
			c-0.7,0.381-0.567,1.445-0.346,0.027c0.922-5.913,1.844-11.826,2.766-17.738C78.758,34.178,78.685,33.925,78.721,33.689
			c-0.972,6.236-1.945,12.472-2.917,18.708c-0.016,0.099,0.061,0.693,0,0.726c5.542-3.021,11.083-6.042,16.624-9.064
			c0.834-0.455,7.122,3.607,8.009,4.057c2.96,1.5,5.921,3,8.882,4.499c-0.059-0.03,0.018-0.628,0-0.726
			c-1.157-6.182-2.314-12.364-3.472-18.546c0.211,1.126,1.291-0.648,1.947-1.308c1.458-1.465,2.916-2.93,4.374-4.395
			c2.341-2.353,4.682-4.705,7.023-7.058c0.042-0.042-0.007-0.727,0-0.726c-6.259-0.812-12.518-1.625-18.776-2.438
			c-0.942-0.123-3.642-7.104-4.095-7.99c-1.514-2.953-3.028-5.907-4.542-8.86c0.48,0.936-3.389,7.137-3.851,8.11
			c-1.423,2.998-2.847,5.997-4.271,8.995c-0.407,0.858-7.882,1.268-8.864,1.426c-3.277,0.527-6.554,1.054-9.831,1.581
			c0.004,0-0.042,0.687,0,0.726c4.586,4.336,9.171,8.673,13.757,13.01C78.604,34.304,78.845,33.806,78.721,33.689z"/>
	</g>
	<polygon fill="none" stroke="#717171" stroke-width="0.5878" stroke-miterlimit="1" points="109.798,52.889 92.434,44.094 
		75.346,53.412 78.344,34.181 64.202,20.808 83.419,17.717 91.767,0.134 100.646,17.456 119.946,19.961 106.217,33.757 	"/>
	<g opacity="0.58">
		<path d="M109.798,52.829c-5.359-2.714-10.718-5.429-16.078-8.144c-1.688-0.854-1.913-0.31-3.643,0.634
			c-3.434,1.872-6.867,3.745-10.301,5.617c-0.78,0.425-4.471,2.797-4.346,1.998c0.521-3.346,1.043-6.691,1.565-10.037
			c0.43-2.759,1.452-5.972,1.35-8.774c-0.033-0.898-3.678-3.481-4.31-4.078c-2.787-2.636-5.575-5.271-8.362-7.907
			c-1.901-1.798-1.219-1.311,1.18-1.696c3.861-0.621,7.723-1.242,11.584-1.863c0.841-0.135,4.69-0.187,5.088-1.025
			c1.356-2.855,2.712-5.711,4.067-8.567c1.313-2.766,2.627-5.532,3.94-8.299c0.49-1.031,2.155,3.256,2.536,3.999
			c1.973,3.849,3.946,7.698,5.919,11.547c1.094,2.134,3.34,1.631,5.662,1.933c4.289,0.557,8.578,1.114,12.867,1.671
			c0.717,0.093,1.655-0.162,1.045,0.451c-1.267,1.273-2.533,2.545-3.8,3.818c-2.959,2.974-5.919,5.948-8.878,8.921
			c-0.194,0.195-0.679,0.467-0.667,0.789c0.228,6.267,2.425,12.959,3.581,19.134C109.791,52.911,109.805,52.868,109.798,52.829
			c-1.19-6.356-2.379-12.713-3.569-19.069c-0.173-0.924,6.098-6.081,6.853-6.839c2.288-2.299,4.577-4.599,6.865-6.898
			c0.007-0.007-0.001-0.121,0-0.121c-6.434-0.835-12.867-1.67-19.301-2.506c-1.021-0.132-3.944-7.695-4.439-8.661
			c-1.479-2.887-2.959-5.774-4.439-8.661c0.521,1.015-3.67,7.73-4.174,8.792c-1.391,2.93-2.782,5.861-4.174,8.791
			c-0.442,0.93-8.537,1.373-9.608,1.545c-3.203,0.515-6.406,1.03-9.608,1.545c0,0-0.007,0.115,0,0.121
			c4.699,4.443,9.397,8.887,14.096,13.33c0.759,0.717-1.274,8.387-1.454,9.538c-0.5,3.205-0.999,6.41-1.499,9.615
			c-0.002,0.017,0.01,0.116,0,0.121c5.696-3.106,11.392-6.211,17.088-9.317c0.904-0.493,7.714,3.907,8.682,4.397
			c2.894,1.466,5.788,2.932,8.682,4.397C109.782,52.942,109.815,52.837,109.798,52.829z"/>
	</g>
</g>
</svg>
